<?xml version="1.0" encoding="utf-8"?>
<!-- Generator: Adobe Illustrator 17.0.0, SVG Export Plug-In . SVG Version: 6.00 Build 0)  -->
<!DOCTYPE svg PUBLIC "-//W3C//DTD SVG 1.1//EN" "http://www.w3.org/Graphics/SVG/1.1/DTD/svg11.dtd">
<svg version="1.1" id="Layer_1" xmlns="http://www.w3.org/2000/svg" xmlns:xlink="http://www.w3.org/1999/xlink" x="0px" y="0px"
	 width="25px" height="25px" viewBox="0 0 25 25" enable-background="new 0 0 25 25" xml:space="preserve">
<g>
	<g>
		<g>
			<path fill="#FFFFFF" d="M23.403,19.478l-2.515-1.677l-2.236-1.49c-0.432-0.287-1.011-0.193-1.33,0.216l-1.384,1.779
				c-0.297,0.386-0.832,0.497-1.258,0.261c-0.939-0.522-2.049-1.014-4.498-3.466s-2.944-3.56-3.466-4.498
				C6.479,10.175,6.59,9.64,6.976,9.343L8.755,7.96c0.409-0.319,0.503-0.898,0.216-1.33L7.526,4.463L5.804,1.879
				c-0.293-0.44-0.88-0.572-1.333-0.3L2.483,2.771C1.946,3.087,1.552,3.598,1.381,4.197c-0.543,1.981-0.653,6.35,6.35,13.353
				s11.372,6.893,13.353,6.35c0.599-0.171,1.11-0.565,1.427-1.102l1.192-1.987C23.974,20.358,23.842,19.771,23.403,19.478z"/>
			<path fill="#FFFFFF" d="M14.064,4.958c3.671,0.004,6.646,2.979,6.65,6.65c0,0.216,0.175,0.391,0.391,0.391
				c0.216,0,0.391-0.175,0.391-0.391c-0.005-4.103-3.329-7.427-7.432-7.432c-0.216,0-0.391,0.175-0.391,0.391
				C13.673,4.783,13.848,4.958,14.064,4.958z"/>
			<path fill="#FFFFFF" d="M14.064,7.305c2.375,0.003,4.3,1.928,4.303,4.303c0,0.216,0.175,0.391,0.391,0.391
				c0.216,0,0.391-0.175,0.391-0.391c-0.003-2.807-2.278-5.082-5.085-5.085c-0.216,0-0.391,0.175-0.391,0.391
				S13.848,7.305,14.064,7.305z"/>
			<path fill="#FFFFFF" d="M14.064,9.652c1.08,0.001,1.955,0.876,1.956,1.956c0,0.216,0.175,0.391,0.391,0.391
				c0.216,0,0.391-0.175,0.391-0.391c-0.002-1.511-1.227-2.736-2.738-2.738c-0.216,0-0.391,0.175-0.391,0.391
				C13.673,9.477,13.848,9.652,14.064,9.652z"/>
		</g>
	</g>
</g>
</svg>
