<?xml version="1.0" encoding="utf-8"?>
<!-- Generator: Adobe Illustrator 17.0.0, SVG Export Plug-In . SVG Version: 6.00 Build 0)  -->
<!DOCTYPE svg PUBLIC "-//W3C//DTD SVG 1.1//EN" "http://www.w3.org/Graphics/SVG/1.1/DTD/svg11.dtd">
<svg version="1.1" id="Layer_1" xmlns="http://www.w3.org/2000/svg" xmlns:xlink="http://www.w3.org/1999/xlink" x="0px" y="0px"
	 width="25px" height="25px" viewBox="0 0 25 25" enable-background="new 0 0 25 25" xml:space="preserve">
<g>
	<g>
		<path fill="#FFFFFF" d="M17.146,23.541H8.281c-3.934,0-7.136-3.201-7.136-7.135V8.594c0-3.934,3.201-7.135,7.136-7.135h8.865
			c3.934,0,7.135,3.201,7.135,7.135v7.812C24.281,20.34,21.08,23.541,17.146,23.541z M8.281,3.044c-3.06,0-5.55,2.49-5.55,5.549
			v7.812c0,3.06,2.489,5.549,5.55,5.549h8.865c3.06,0,5.549-2.49,5.549-5.549V8.594c0-3.06-2.489-5.549-5.549-5.549H8.281z"/>
	</g>
	<g>
		<path fill="#FFFFFF" d="M12.713,18.851c-3.502,0-6.351-2.849-6.351-6.351c0-3.502,2.849-6.352,6.351-6.352
			c3.502,0,6.351,2.849,6.351,6.352C19.065,16.002,16.216,18.851,12.713,18.851z M12.713,7.734c-2.628,0-4.766,2.138-4.766,4.766
			c0,2.628,2.138,4.766,4.766,4.766c2.628,0,4.766-2.138,4.766-4.766C17.479,9.872,15.341,7.734,12.713,7.734z"/>
	</g>
	<g>
		<circle fill="#FFFFFF" cx="18.967" cy="6.344" r="1.318"/>
	</g>
</g>
</svg>
