<?xml version="1.0" encoding="utf-8"?>
<!-- Generator: Adobe Illustrator 17.0.0, SVG Export Plug-In . SVG Version: 6.00 Build 0)  -->
<!DOCTYPE svg PUBLIC "-//W3C//DTD SVG 1.1//EN" "http://www.w3.org/Graphics/SVG/1.1/DTD/svg11.dtd">
<svg version="1.1" id="Layer_1" xmlns="http://www.w3.org/2000/svg" xmlns:xlink="http://www.w3.org/1999/xlink" x="0px" y="0px"
	 width="25px" height="25px" viewBox="0 0 25 25" enable-background="new 0 0 25 25" xml:space="preserve">
<g>
	<g>
		<path fill="#FFFFFF" d="M12.5,1.742c-6.167,0-11.167,4.999-11.167,11.167S6.333,24.076,12.5,24.076s11.167-5,11.167-11.167
			S18.667,1.742,12.5,1.742z M18.535,4.584c-0.416,0.124-0.82,0.257-1.212,0.397c-0.321-0.409-0.811-0.651-1.331-0.657
			c-0.126,0-0.251,0.015-0.374,0.043c-0.374-0.631-0.726-1.155-1.009-1.555C16.028,3.117,17.367,3.722,18.535,4.584z M15.627,19.227
			c-0.176-0.063-0.362-0.097-0.55-0.099c-0.566,0.002-1.095,0.284-1.413,0.752c-1.672-0.71-3.172-1.769-4.402-3.105
			c0.602-0.706,0.517-1.766-0.188-2.367c-0.095-0.081-0.199-0.151-0.31-0.21c0.562-1.839,1.575-3.509,2.946-4.858
			c1.458,0.069,2.89,0.406,4.226,0.992c-0.184,0.919,0.411,1.813,1.33,1.997c0.016,0.003,0.032,0.006,0.049,0.009
			C17.468,14.753,16.879,17.157,15.627,19.227z M15.936,20.833c0,0.474-0.385,0.859-0.859,0.859s-0.859-0.385-0.859-0.859
			s0.385-0.859,0.859-0.859S15.936,20.359,15.936,20.833z M7.346,9.95c1.023-0.321,2.082-0.517,3.152-0.584
			c-1.183,1.339-2.063,2.919-2.577,4.63c-0.171,0.003-0.34,0.032-0.503,0.086c-0.387-0.789-0.699-1.613-0.932-2.461
			c0.553-0.297,0.901-0.871,0.906-1.499C7.381,10.064,7.365,10.006,7.346,9.95z M15.987,7.755c0.099-0.001,0.199-0.011,0.296-0.03
			c0.189,0.49,0.354,0.978,0.494,1.465c-0.163,0.099-0.308,0.223-0.429,0.369c-1.188-0.52-2.448-0.857-3.737-1.001
			c0.654-0.533,1.352-1.009,2.087-1.422C15.016,7.523,15.488,7.75,15.987,7.755z M15.128,6.037c0-0.474,0.385-0.859,0.859-0.859
			c0.474,0,0.859,0.385,0.859,0.859c0,0.474-0.385,0.859-0.859,0.859c-0.469-0.007-0.846-0.39-0.846-0.859H15.128z M16.795,10.663
			c0-0.474,0.385-0.859,0.859-0.859s0.859,0.385,0.859,0.859s-0.385,0.859-0.859,0.859S16.795,11.137,16.795,10.663z M5.925,5.002
			c1.842-1.548,4.17-2.398,6.575-2.401c0.301,0,0.597,0,0.893,0.043c0.536,0.681,1.024,1.399,1.46,2.147
			c-0.357,0.316-0.565,0.768-0.571,1.246c0.001,0.102,0.011,0.204,0.03,0.305c-1.064,0.594-2.052,1.315-2.942,2.147
			C9.913,8.483,8.463,8.706,7.076,9.151C6.798,8.77,6.375,8.52,5.907,8.46C5.798,7.31,5.803,6.151,5.925,5.002z M5.68,9.293
			L5.68,9.293l0.004,0.004c0.474,0,0.859,0.385,0.859,0.859s-0.385,0.859-0.859,0.859c-0.474,0-0.859-0.385-0.859-0.859
			C4.823,9.682,5.205,9.295,5.68,9.293z M4.984,5.891C4.939,6.782,4.956,7.675,5.036,8.563c-0.638,0.264-1.056,0.885-1.061,1.576
			c0,0.105,0.01,0.21,0.03,0.314c-0.593,0.32-1.166,0.674-1.718,1.061C2.581,9.405,3.523,7.44,4.984,5.891z M2.192,12.909
			c0-0.082,0-0.163,0-0.249c0.674-0.537,1.393-1.017,2.147-1.434c0.318,0.385,0.789,0.609,1.288,0.614
			c0.269,0.933,0.629,1.838,1.074,2.701c-0.64,0.681-0.606,1.752,0.075,2.392c0.164,0.154,0.358,0.274,0.569,0.353
			C7.25,18.87,7.377,20.461,7.724,22.01C4.334,20.238,2.205,16.734,2.192,12.909z M7.101,15.697H7.084
			c0-0.474,0.385-0.859,0.859-0.859c0.474,0,0.859,0.385,0.859,0.859c0,0.474-0.385,0.859-0.859,0.859
			C7.475,16.546,7.101,16.164,7.101,15.697z M12.199,23.191c-1.191-0.033-2.367-0.275-3.475-0.713
			c-0.446-1.662-0.621-3.385-0.52-5.102c0.126-0.017,0.25-0.049,0.369-0.094c1.332,1.484,2.974,2.657,4.81,3.436
			c0,0.047,0,0.09,0,0.133c-0.001,0.345,0.104,0.683,0.301,0.966C13.215,22.301,12.719,22.76,12.199,23.191z M13.54,23.143
			c0.284-0.259,0.545-0.521,0.781-0.785c0.233,0.118,0.49,0.18,0.752,0.18c0.594-0.005,1.143-0.317,1.452-0.825
			c0.309,0.073,0.623,0.142,0.945,0.198C16.257,22.584,14.92,23.004,13.54,23.143z M18.556,21.219
			c-0.613-0.086-1.209-0.197-1.783-0.33c0,0,0-0.039,0-0.056c0-0.415-0.153-0.816-0.429-1.125c1.367-2.232,2.01-4.831,1.843-7.443
			c0.205-0.072,0.395-0.183,0.558-0.326c1.382,1.032,2.629,2.234,3.711,3.578C21.851,17.809,20.473,19.823,18.556,21.219z
			 M22.679,14.442c-1.02-1.199-2.173-2.278-3.436-3.217c0.066-0.18,0.101-0.371,0.103-0.563c0-0.949-0.769-1.718-1.718-1.718
			c-0.152-0.53-0.332-1.062-0.541-1.598c0.387-0.324,0.609-0.805,0.606-1.31c-0.002-0.088-0.01-0.175-0.026-0.262
			c0.545-0.193,1.112-0.374,1.718-0.537c2.58,2.309,3.823,5.763,3.307,9.187L22.679,14.442z"/>
	</g>
</g>
<circle fill="#FFFFFF" cx="5.871" cy="10.154" r="1.303"/>
<circle fill="#FFFFFF" cx="16.07" cy="6.06" r="1.303"/>
<circle fill="#FFFFFF" cx="17.745" cy="10.601" r="1.303"/>
<circle fill="#FFFFFF" cx="7.993" cy="15.552" r="1.303"/>
<circle fill="#FFFFFF" cx="15.139" cy="20.841" r="1.303"/>
</svg>
