<?xml version="1.0" encoding="utf-8"?>
<!-- Generator: Adobe Illustrator 17.0.0, SVG Export Plug-In . SVG Version: 6.00 Build 0)  -->
<!DOCTYPE svg PUBLIC "-//W3C//DTD SVG 1.1//EN" "http://www.w3.org/Graphics/SVG/1.1/DTD/svg11.dtd">
<svg version="1.1" id="Layer_1" xmlns="http://www.w3.org/2000/svg" xmlns:xlink="http://www.w3.org/1999/xlink" x="0px" y="0px"
	 width="25px" height="25px" viewBox="0 0 25 25" enable-background="new 0 0 25 25" xml:space="preserve">
<g>
	<polygon fill="#FFFFFF" points="23.172,4.007 23.172,4.007 23.172,4.007 	"/>
	<path fill="#FFFFFF" d="M22.287,6.302c-0.489,0.135-0.874,0.114-0.874,0.114l0.016-0.093c0.455-0.364,1.604-1.482,1.755-2.005
		c0.066-0.226-0.012-0.304-0.013-0.311l-1.466,0.623l-1.227,0.554l0,0c-0.847-0.896-2.129-1.468-3.562-1.468
		c-2.551,0-4.619,1.807-4.619,4.037c0,0.407,0.061,1.152,0.188,1.523c0,0.117,0.005-0.117,0,0c-1.642-0.045-3.747-0.719-5.622-1.669
		C3.165,5.732,2.933,4.435,2.933,4.435c-0.581,0.617-0.881,2.659-0.292,4.26C3.019,9.72,4.314,10.64,4.314,10.64l0,0
		c0,0-0.579,0.011-1.186-0.194c-0.607-0.205-0.836-0.409-0.836-0.409c-0.361,0.88,0.363,2.452,1.615,3.579
		c0.729,0.658,2.061,1.07,2.061,1.07l-2.081,0.059c-0.117,2.023,4.242,3.225,4.242,3.225l0,0c-1.278,0.982-2.76,1.581-4.349,1.581
		c-0.824,0-1.62-0.123-2.375-0.348c2.1,1.73,4.798,2.924,7.732,2.77c7.784-0.409,12.178-7.1,12.387-13.671l0.01,0.014
		c0,0,0.365-0.182,1.145-0.962c0.779-0.78,1.265-1.692,1.265-1.692S22.776,6.167,22.287,6.302z"/>
	<path fill="#FFFFFF" d="M23.172,4.007C23.177,4.131,23.172,4.019,23.172,4.007L23.172,4.007z"/>
</g>
</svg>
