<?xml version="1.0" encoding="utf-8"?>
<!-- Generator: Adobe Illustrator 17.0.0, SVG Export Plug-In . SVG Version: 6.00 Build 0)  -->
<!DOCTYPE svg PUBLIC "-//W3C//DTD SVG 1.1//EN" "http://www.w3.org/Graphics/SVG/1.1/DTD/svg11.dtd">
<svg version="1.1" id="Layer_1" xmlns="http://www.w3.org/2000/svg" xmlns:xlink="http://www.w3.org/1999/xlink" x="0px" y="0px"
	 width="25px" height="25px" viewBox="0 0 25 25" enable-background="new 0 0 25 25" xml:space="preserve">
<path fill="#FFFFFF" d="M20.766,4.591c-2.019-2.021-4.704-3.135-7.565-3.136c-5.894,0-10.692,4.797-10.694,10.693
	c-0.001,1.885,0.492,3.725,1.427,5.346l-1.517,5.541l5.669-1.487c1.562,0.852,3.321,1.301,5.11,1.302h0.004
	c5.894,0,10.691-4.797,10.694-10.694C23.896,9.299,22.785,6.612,20.766,4.591z M13.201,21.044h-0.004
	c-1.595-0.001-3.159-0.429-4.524-1.239l-0.324-0.193l-3.364,0.883l0.898-3.28l-0.211-0.336c-0.89-1.415-1.36-3.051-1.359-4.73
	c0.002-4.901,3.989-8.888,8.892-8.888c2.374,0.001,4.606,0.927,6.284,2.607c1.678,1.68,2.602,3.913,2.601,6.288
	C22.087,17.056,18.1,21.044,13.201,21.044z M18.077,14.387c-0.267-0.134-1.581-0.78-1.826-0.869
	c-0.245-0.089-0.423-0.134-0.601,0.134c-0.178,0.267-0.69,0.869-0.846,1.048c-0.156,0.178-0.312,0.201-0.579,0.067
	c-0.267-0.134-1.128-0.416-2.149-1.326c-0.794-0.709-1.33-1.584-1.486-1.851c-0.156-0.268-0.001-0.398,0.117-0.545
	c0.289-0.359,0.579-0.736,0.668-0.914c0.089-0.178,0.045-0.334-0.022-0.468c-0.067-0.134-0.601-1.449-0.824-1.984
	c-0.217-0.521-0.437-0.45-0.601-0.459C9.771,7.211,9.593,7.209,9.415,7.209c-0.178,0-0.468,0.067-0.713,0.334
	C8.458,7.811,7.767,8.457,7.767,9.773s0.957,2.586,1.091,2.764c0.134,0.178,1.884,2.877,4.565,4.035
	c0.638,0.276,1.135,0.44,1.523,0.563c0.64,0.203,1.222,0.175,1.683,0.106c0.513-0.077,1.581-0.646,1.804-1.271
	c0.223-0.624,0.223-1.159,0.156-1.271C18.522,14.588,18.344,14.521,18.077,14.387z"/>
</svg>
